<svg xmlns="http://www.w3.org/2000/svg" version="1.1" xmlns:xlink="http://www.w3.org/1999/xlink" xmlns:svgjs="http://svgjs.dev/svgjs" viewBox="0 0 1422 800"><g stroke-width="1" stroke="hsl(230, 55%, 40%)" fill="none" stroke-linecap="square"><line x1="0" y1="0" x2="72" y2="72"></line><line x1="144" y1="0" x2="72" y2="72"></line><line x1="216" y1="0" x2="144" y2="72"></line><line x1="288" y1="0" x2="216" y2="72"></line><line x1="288" y1="0" x2="360" y2="72"></line><line x1="360" y1="0" x2="432" y2="72"></line><line x1="432" y1="0" x2="504" y2="72"></line><line x1="576" y1="0" x2="504" y2="72"></line><line x1="648" y1="0" x2="576" y2="72"></line><line x1="648" y1="0" x2="720" y2="72"></line><line x1="720" y1="0" x2="792" y2="72"></line><line x1="792" y1="0" x2="864" y2="72"></line><line x1="936" y1="0" x2="864" y2="72"></line><line x1="936" y1="0" x2="1008" y2="72"></line><line x1="1008" y1="0" x2="1080" y2="72"></line><line x1="1080" y1="0" x2="1152" y2="72"></line><line x1="1224" y1="0" x2="1152" y2="72"></line><line x1="1224" y1="0" x2="1296" y2="72"></line><line x1="1368" y1="0" x2="1296" y2="72"></line><line x1="1368" y1="0" x2="1440" y2="72"></line><line x1="0" y1="72" x2="72" y2="144"></line><line x1="144" y1="72" x2="72" y2="144"></line><line x1="216" y1="72" x2="144" y2="144"></line><line x1="216" y1="72" x2="288" y2="144"></line><line x1="360" y1="72" x2="288" y2="144"></line><line x1="432" y1="72" x2="360" y2="144"></line><line x1="504" y1="72" x2="432" y2="144"></line><line x1="576" y1="72" x2="504" y2="144"></line><line x1="576" y1="72" x2="648" y2="144"></line><line x1="648" y1="72" x2="720" y2="144"></line><line x1="792" y1="72" x2="720" y2="144"></line><line x1="792" y1="72" x2="864" y2="144"></line><line x1="864" y1="72" x2="936" y2="144"></line><line x1="936" y1="72" x2="1008" y2="144"></line><line x1="1008" y1="72" x2="1080" y2="144"></line><line x1="1152" y1="72" x2="1080" y2="144"></line><line x1="1224" y1="72" x2="1152" y2="144"></line><line x1="1296" y1="72" x2="1224" y2="144"></line><line x1="1296" y1="72" x2="1368" y2="144"></line><line x1="1368" y1="72" x2="1440" y2="144"></line><line x1="0" y1="144" x2="72" y2="216"></line><line x1="72" y1="144" x2="144" y2="216"></line><line x1="144" y1="144" x2="216" y2="216"></line><line x1="216" y1="144" x2="288" y2="216"></line><line x1="288" y1="144" x2="360" y2="216"></line><line x1="360" y1="144" x2="432" y2="216"></line><line x1="432" y1="144" x2="504" y2="216"></line><line x1="576" y1="144" x2="504" y2="216"></line><line x1="648" y1="144" x2="576" y2="216"></line><line x1="648" y1="144" x2="720" y2="216"></line><line x1="720" y1="144" x2="792" y2="216"></line><line x1="864" y1="144" x2="792" y2="216"></line><line x1="936" y1="144" x2="864" y2="216"></line><line x1="936" y1="144" x2="1008" y2="216"></line><line x1="1008" y1="144" x2="1080" y2="216"></line><line x1="1080" y1="144" x2="1152" y2="216"></line><line x1="1152" y1="144" x2="1224" y2="216"></line><line x1="1224" y1="144" x2="1296" y2="216"></line><line x1="1296" y1="144" x2="1368" y2="216"></line><line x1="1368" y1="144" x2="1440" y2="216"></line><line x1="0" y1="216" x2="72" y2="288"></line><line x1="72" y1="216" x2="144" y2="288"></line><line x1="144" y1="216" x2="216" y2="288"></line><line x1="288" y1="216" x2="216" y2="288"></line><line x1="288" y1="216" x2="360" y2="288"></line><line x1="360" y1="216" x2="432" y2="288"></line><line x1="504" y1="216" x2="432" y2="288"></line><line x1="504" y1="216" x2="576" y2="288"></line><line x1="648" y1="216" x2="576" y2="288"></line><line x1="648" y1="216" x2="720" y2="288"></line><line x1="792" y1="216" x2="720" y2="288"></line><line x1="792" y1="216" x2="864" y2="288"></line><line x1="864" y1="216" x2="936" y2="288"></line><line x1="936" y1="216" x2="1008" y2="288"></line><line x1="1008" y1="216" x2="1080" y2="288"></line><line x1="1080" y1="216" x2="1152" y2="288"></line><line x1="1224" y1="216" x2="1152" y2="288"></line><line x1="1224" y1="216" x2="1296" y2="288"></line><line x1="1368" y1="216" x2="1296" y2="288"></line><line x1="1368" y1="216" x2="1440" y2="288"></line><line x1="0" y1="288" x2="72" y2="360"></line><line x1="72" y1="288" x2="144" y2="360"></line><line x1="144" y1="288" x2="216" y2="360"></line><line x1="216" y1="288" x2="288" y2="360"></line><line x1="288" y1="288" x2="360" y2="360"></line><line x1="432" y1="288" x2="360" y2="360"></line><line x1="504" y1="288" x2="432" y2="360"></line><line x1="504" y1="288" x2="576" y2="360"></line><line x1="576" y1="288" x2="648" y2="360"></line><line x1="648" y1="288" x2="720" y2="360"></line><line x1="720" y1="288" x2="792" y2="360"></line><line x1="792" y1="288" x2="864" y2="360"></line><line x1="864" y1="288" x2="936" y2="360"></line><line x1="1008" y1="288" x2="936" y2="360"></line><line x1="1080" y1="288" x2="1008" y2="360"></line><line x1="1080" y1="288" x2="1152" y2="360"></line><line x1="1152" y1="288" x2="1224" y2="360"></line><line x1="1296" y1="288" x2="1224" y2="360"></line><line x1="1296" y1="288" x2="1368" y2="360"></line><line x1="1368" y1="288" x2="1440" y2="360"></line><line x1="72" y1="360" x2="0" y2="432"></line><line x1="72" y1="360" x2="144" y2="432"></line><line x1="144" y1="360" x2="216" y2="432"></line><line x1="288" y1="360" x2="216" y2="432"></line><line x1="288" y1="360" x2="360" y2="432"></line><line x1="360" y1="360" x2="432" y2="432"></line><line x1="504" y1="360" x2="432" y2="432"></line><line x1="504" y1="360" x2="576" y2="432"></line><line x1="576" y1="360" x2="648" y2="432"></line><line x1="720" y1="360" x2="648" y2="432"></line><line x1="720" y1="360" x2="792" y2="432"></line><line x1="792" y1="360" x2="864" y2="432"></line><line x1="936" y1="360" x2="864" y2="432"></line><line x1="936" y1="360" x2="1008" y2="432"></line><line x1="1008" y1="360" x2="1080" y2="432"></line><line x1="1152" y1="360" x2="1080" y2="432"></line><line x1="1152" y1="360" x2="1224" y2="432"></line><line x1="1224" y1="360" x2="1296" y2="432"></line><line x1="1296" y1="360" x2="1368" y2="432"></line><line x1="1440" y1="360" x2="1368" y2="432"></line><line x1="0" y1="432" x2="72" y2="504"></line><line x1="144" y1="432" x2="72" y2="504"></line><line x1="144" y1="432" x2="216" y2="504"></line><line x1="216" y1="432" x2="288" y2="504"></line><line x1="288" y1="432" x2="360" y2="504"></line><line x1="360" y1="432" x2="432" y2="504"></line><line x1="432" y1="432" x2="504" y2="504"></line><line x1="504" y1="432" x2="576" y2="504"></line><line x1="576" y1="432" x2="648" y2="504"></line><line x1="648" y1="432" x2="720" y2="504"></line><line x1="720" y1="432" x2="792" y2="504"></line><line x1="864" y1="432" x2="792" y2="504"></line><line x1="936" y1="432" x2="864" y2="504"></line><line x1="936" y1="432" x2="1008" y2="504"></line><line x1="1080" y1="432" x2="1008" y2="504"></line><line x1="1080" y1="432" x2="1152" y2="504"></line><line x1="1224" y1="432" x2="1152" y2="504"></line><line x1="1224" y1="432" x2="1296" y2="504"></line><line x1="1296" y1="432" x2="1368" y2="504"></line><line x1="1440" y1="432" x2="1368" y2="504"></line><line x1="0" y1="504" x2="72" y2="576"></line><line x1="144" y1="504" x2="72" y2="576"></line><line x1="216" y1="504" x2="144" y2="576"></line><line x1="216" y1="504" x2="288" y2="576"></line><line x1="360" y1="504" x2="288" y2="576"></line><line x1="432" y1="504" x2="360" y2="576"></line><line x1="504" y1="504" x2="432" y2="576"></line><line x1="504" y1="504" x2="576" y2="576"></line><line x1="576" y1="504" x2="648" y2="576"></line><line x1="720" y1="504" x2="648" y2="576"></line><line x1="720" y1="504" x2="792" y2="576"></line><line x1="864" y1="504" x2="792" y2="576"></line><line x1="864" y1="504" x2="936" y2="576"></line><line x1="1008" y1="504" x2="936" y2="576"></line><line x1="1008" y1="504" x2="1080" y2="576"></line><line x1="1080" y1="504" x2="1152" y2="576"></line><line x1="1224" y1="504" x2="1152" y2="576"></line><line x1="1224" y1="504" x2="1296" y2="576"></line><line x1="1368" y1="504" x2="1296" y2="576"></line><line x1="1368" y1="504" x2="1440" y2="576"></line><line x1="72" y1="576" x2="0" y2="648"></line><line x1="72" y1="576" x2="144" y2="648"></line><line x1="144" y1="576" x2="216" y2="648"></line><line x1="288" y1="576" x2="216" y2="648"></line><line x1="288" y1="576" x2="360" y2="648"></line><line x1="432" y1="576" x2="360" y2="648"></line><line x1="504" y1="576" x2="432" y2="648"></line><line x1="576" y1="576" x2="504" y2="648"></line><line x1="576" y1="576" x2="648" y2="648"></line><line x1="720" y1="576" x2="648" y2="648"></line><line x1="720" y1="576" x2="792" y2="648"></line><line x1="792" y1="576" x2="864" y2="648"></line><line x1="864" y1="576" x2="936" y2="648"></line><line x1="936" y1="576" x2="1008" y2="648"></line><line x1="1080" y1="576" x2="1008" y2="648"></line><line x1="1080" y1="576" x2="1152" y2="648"></line><line x1="1152" y1="576" x2="1224" y2="648"></line><line x1="1296" y1="576" x2="1224" y2="648"></line><line x1="1296" y1="576" x2="1368" y2="648"></line><line x1="1440" y1="576" x2="1368" y2="648"></line><line x1="72" y1="648" x2="0" y2="720"></line><line x1="144" y1="648" x2="72" y2="720"></line><line x1="216" y1="648" x2="144" y2="720"></line><line x1="288" y1="648" x2="216" y2="720"></line><line x1="288" y1="648" x2="360" y2="720"></line><line x1="432" y1="648" x2="360" y2="720"></line><line x1="504" y1="648" x2="432" y2="720"></line><line x1="504" y1="648" x2="576" y2="720"></line><line x1="576" y1="648" x2="648" y2="720"></line><line x1="720" y1="648" x2="648" y2="720"></line><line x1="720" y1="648" x2="792" y2="720"></line><line x1="792" y1="648" x2="864" y2="720"></line><line x1="864" y1="648" x2="936" y2="720"></line><line x1="936" y1="648" x2="1008" y2="720"></line><line x1="1008" y1="648" x2="1080" y2="720"></line><line x1="1152" y1="648" x2="1080" y2="720"></line><line x1="1224" y1="648" x2="1152" y2="720"></line><line x1="1224" y1="648" x2="1296" y2="720"></line><line x1="1296" y1="648" x2="1368" y2="720"></line><line x1="1440" y1="648" x2="1368" y2="720"></line><line x1="0" y1="720" x2="72" y2="792"></line><line x1="72" y1="720" x2="144" y2="792"></line><line x1="144" y1="720" x2="216" y2="792"></line><line x1="216" y1="720" x2="288" y2="792"></line><line x1="360" y1="720" x2="288" y2="792"></line><line x1="432" y1="720" x2="360" y2="792"></line><line x1="432" y1="720" x2="504" y2="792"></line><line x1="576" y1="720" x2="504" y2="792"></line><line x1="648" y1="720" x2="576" y2="792"></line><line x1="720" y1="720" x2="648" y2="792"></line><line x1="792" y1="720" x2="720" y2="792"></line><line x1="864" y1="720" x2="792" y2="792"></line><line x1="936" y1="720" x2="864" y2="792"></line><line x1="936" y1="720" x2="1008" y2="792"></line><line x1="1008" y1="720" x2="1080" y2="792"></line><line x1="1152" y1="720" x2="1080" y2="792"></line><line x1="1224" y1="720" x2="1152" y2="792"></line><line x1="1224" y1="720" x2="1296" y2="792"></line><line x1="1296" y1="720" x2="1368" y2="792"></line><line x1="1368" y1="720" x2="1440" y2="792"></line><line x1="0" y1="792" x2="72" y2="864"></line><line x1="144" y1="792" x2="72" y2="864"></line><line x1="216" y1="792" x2="144" y2="864"></line><line x1="216" y1="792" x2="288" y2="864"></line><line x1="288" y1="792" x2="360" y2="864"></line><line x1="360" y1="792" x2="432" y2="864"></line><line x1="504" y1="792" x2="432" y2="864"></line><line x1="576" y1="792" x2="504" y2="864"></line><line x1="648" y1="792" x2="576" y2="864"></line><line x1="720" y1="792" x2="648" y2="864"></line><line x1="792" y1="792" x2="720" y2="864"></line><line x1="792" y1="792" x2="864" y2="864"></line><line x1="936" y1="792" x2="864" y2="864"></line><line x1="936" y1="792" x2="1008" y2="864"></line><line x1="1008" y1="792" x2="1080" y2="864"></line><line x1="1080" y1="792" x2="1152" y2="864"></line><line x1="1152" y1="792" x2="1224" y2="864"></line><line x1="1224" y1="792" x2="1296" y2="864"></line><line x1="1296" y1="792" x2="1368" y2="864"></line><line x1="1440" y1="792" x2="1368" y2="864"></line></g></svg>